#!OML:ASF I:\Actors\actors\Patient Classification 2\Patient 1\Session 1\actor1.ASF
:FULLY-SPECIFIED
:DEGREES
405
root -0.98246 18.6919 6.55094 0.0278308 2.21814 -0.658702
lowerback 8.3105 0.935568 6.50154
upperback -2.62938 2.12414 2.02235
thorax -7.30448 0.792999 -1.82206
lowerneck -17.9563 -2.73106 1.80232
upperneck 28.8716 -4.15659 -1.23775
head 12.4843 -1.80141 -1.43443
rclavicle -3.16565e-014 6.36111e-015
rhumerus -63.4442 -20.6005 -73.785
rradius 40.5263
rwrist -9.60669
rhand -22.5591 -41.3037
rfingers 7.12502
rthumb 3.86889 -71.2483
lclavicle -3.16565e-014 6.36111e-015
lhumerus -53.9967 14.1669 86.0339
lradius 40.705
lwrist 23.6622
lhand -23.0696 -14.693
lfingers 7.12502
lthumb 3.3759 15.26
rfemur 0 0 0
rtibia 0
rfoot 0 0
rtoes 0
lfemur -4.31806 -0.589264 -12.7936
ltibia 25.1981
lfoot -19.3556 5.46032
ltoes -57.0266
406
root -1.03825 18.7109 6.55832 0.105947 2.48509 -0.196803
lowerback 8.11786 0.954056 6.52601
upperback -2.61831 2.14414 2.16944
thorax -7.18507 0.809471 -1.67845
lowerneck -18.1047 -2.67561 1.91837
upperneck 28.8345 -4.03506 -1.49325
head 12.492 -1.76849 -1.53432
rclavicle -1.60519e-014 -3.81667e-014
rhumerus -63.3339 -20.5889 -73.6141
rradius 40.4171
rwrist -9.66888
rhand -23.3997 -41.6482
rfingers 7.12502
rthumb 3.05708 -71.6061
lclavicle -1.60519e-014 -3.81667e-014
lhumerus -53.9538 13.9983 86.2882
lradius 40.6938
lwrist 23.3132
lhand -23.5262 -14.9648
lfingers 7.12502
lthumb 2.93491 14.9947
rfemur 0 0 0
rtibia 0
rfoot 0 0
rtoes 0
lfemur -4.56874 0.405888 -12.9425
ltibia 25.3313
lfoot -18.2626 4.38296
ltoes -56.9162
407
root -1.09072 18.7271 6.56383 0.117782 2.74452 0.228352
lowerback 8.03077 0.989773 6.52799
upperback -2.62995 2.19147 2.26251
thorax -7.14755 0.835907 -1.58581
lowerneck -18.1524 -2.61187 2.21714
upperneck 28.8041 -3.94175 -1.80374
head 12.4754 -1.73588 -1.68829
rclavicle 2.0773e-014 -2.06736e-014
rhumerus -63.3531 -20.5428 -73.528
rradius 40.3746
rwrist -9.6522
rhand -24.1956 -41.7879
rfingers 7.12502
rthumb 2.28841 -71.7554
lclavicle 2.0773e-014 -2.06736e-014
lhumerus -53.9728 13.4625 86.6651
lradius 40.8522
lwrist 23.3924
lhand -23.9385 -15.2497
lfingers 7.12502
lthumb 2.53673 14.7149
rfemur 0 0 0
rtibia 0
rfoot 0 0
rtoes 0
lfemur -4.75147 1.18737 -13.0893
ltibia 25.4816
lfoot -17.2105 3.32653
ltoes -56.5627
408
root -1.13032 18.7395 6.56594 -0.0363734 3.10216 0.645205
lowerback 8.14567 0.984988 6.61409
upperback -2.61447 2.20765 2.31483
thorax -7.19587 0.839955 -1.58355
lowerneck -18.2027 -2.57335 2.454
upperneck 28.8 -3.87862 -2.0728
head 12.4724 -1.71741 -1.82153
rclavicle 1.46107e-014 -9.54166e-015
rhumerus -63.396 -20.4793 -73.437
rradius 40.264
rwrist -9.54545
rhand -24.7272 -41.8504
rfingers 7.12502
rthumb 1.77507 -71.8227
lclavicle 1.46107e-014 -9.54166e-015
lhumerus -53.9877 12.8062 87.1764
lradius 41.1253
lwrist 23.7137
lhand -24.3153 -15.5025
lfingers 7.12502
lthumb 2.17288 14.4662
rfemur 0 0 0
rtibia 0
rfoot 0 0
rtoes 0
lfemur -4.78228 1.54278 -13.3187
ltibia 25.6497
lfoot -16.4176 2.58775
ltoes -56.3877
409
root -1.15518 18.7483 6.56411 -0.357849 3.56892 0.975649
lowerback 8.48102 0.907938 6.92032
upperback -2.56774 2.16887 2.33595
thorax -7.33472 0.80379 -1.73425
lowerneck -18.3839 -2.55433 2.50911
upperneck 28.9058 -3.81376 -2.26521
head 12.5476 -1.70551 -1.90065
rclavicle 1.92821e-014 0
rhumerus -63.3406 -20.3278 -73.4416
rradius 40.0076
rwrist -9.43508
rhand -25.0123 -41.8405
rfingers 7.12502
rthumb 1.49973 -71.815
lclavicle 1.92821e-014 0
lhumerus -54.0113 12.3447 87.6049
lradius 41.4289
lwrist 23.9894
lhand -24.6233 -15.8416
lfingers 7.12502
lthumb 1.87537 14.1299
rfemur 0 0 0
rtibia 0
rfoot 0 0
rtoes 0
lfemur -4.64425 1.50219 -13.548
ltibia 25.7934
lfoot -15.8789 2.24546
ltoes -56.4009
410
root -1.18132 18.7552 6.56566 -0.554887 3.88251 1.29287
lowerback 8.67115 0.896443 7.1085
upperback -2.55054 2.1907 2.31444
thorax -7.41826 0.802655 -1.86931
lowerneck -18.585 -2.57354 2.5062
upperneck 29.0359 -3.80093 -2.40969
head 12.6382 -1.7164 -1.9613
rclavicle 1.4561e-014 4.13472e-014
rhumerus -63.3435 -20.2705 -73.4408
rradius 39.8557
rwrist -9.27804
rhand -25.0698 -41.8713
rfingers 7.12502
rthumb 1.44418 -71.8461
lclavicle 1.4561e-014 4.13472e-014
lhumerus -54.0229 12.0994 87.8309
lradius 41.6843
lwrist 24.0934
lhand -24.7835 -16.2136
lfingers 7.12502
lthumb 1.72062 13.7592
rfemur 0 0 0
rtibia 0
rfoot 0 0
rtoes 0
lfemur -4.56496 1.68183 -13.7398
ltibia 25.8951
lfoot -15.3672 1.85864
ltoes -56.3454
411
root -1.20937 18.7609 6.57347 -0.535951 3.995 1.66643
lowerback 8.58735 0.974118 7.04039
upperback -2.58152 2.2756 2.24899
thorax -7.39521 0.845752 -1.91074
lowerneck -18.674 -2.6182 2.55041
upperneck 29.0959 -3.83407 -2.56239
head 12.6744 -1.7454 -2.03605
rclavicle 4.47266e-015 1.90833e-014
rhumerus -63.4085 -20.3397 -73.3781
rradius 39.7614
rwrist -9.10148
rhand -25.0705 -41.9378
rfingers 7.12502
rthumb 1.44345 -71.9127
lclavicle 4.47266e-015 1.90833e-014
lhumerus -53.9708 12.0748 87.8633
lradius 41.8064
lwrist 23.9878
lhand -24.8224 -16.4772
lfingers 7.12502
lthumb 1.68306 13.4959
rfemur 0 0 0
rtibia 0
rfoot 0 0
rtoes 0
lfemur -4.61922 2.12827 -13.9627
ltibia 25.946
lfoot -14.8688 1.35809
ltoes -56.3894
412
root -1.23235 18.7656 6.58444 -0.456149 4.0506 1.93849
lowerback 8.42509 1.04224 6.97409
upperback -2.66213 2.34365 2.17992
thorax -7.38149 0.879287 -1.95261
lowerneck -18.6504 -2.65719 2.71182
upperneck 29.1705 -3.85316 -2.84712
head 12.6867 -1.77362 -2.17685
rclavicle 3.03147e-014 -1.11319e-014
rhumerus -63.4833 -20.3897 -73.3438
rradius 39.5828
rwrist -8.99533
rhand -25.2962 -42.1112
rfingers 7.12502
rthumb 1.22547 -72.0875
lclavicle 3.03147e-014 -1.11319e-014
lhumerus -53.9699 12.1708 87.7462
lradius 41.8547
lwrist 23.7541
lhand -24.861 -16.6969
lfingers 7.12502
lthumb 1.64581 13.2765
rfemur 0 0 0
rtibia 0
rfoot 0 0
rtoes 0
lfemur -4.67561 2.29756 -14.1274
ltibia 25.9416
lfoot -14.5867 1.09307
ltoes -56.4384
413
root -1.24957 18.7664 6.59802 -0.437058 4.02725 2.0339
lowerback 8.27376 1.0956 7.01425
upperback -2.74555 2.40625 2.12324
thorax -7.37477 0.905246 -2.0399
lowerneck -18.5582 -2.71986 2.93554
upperneck 29.2736 -3.89897 -3.21579
head 12.691 -1.81814 -2.36391
rclavicle 4.32357e-014 0
rhumerus -63.5699 -20.4288 -73.3378
rradius 39.3892
rwrist -8.93786
rhand -25.6173 -42.4331
rfingers 7.12502
rthumb 0.915414 -72.4109
lclavicle 4.32357e-014 0
lhumerus -54.0337 12.2663 87.5333
lradius 41.8534
lwrist 23.4167
lhand -24.9941 -16.8731
lfingers 7.12502
lthumb 1.51724 13.1013
rfemur 0 0 0
rtibia 0
rfoot 0 0
rtoes 0
lfemur -4.6208 2.28986 -14.1411
ltibia 25.9093
lfoot -14.5022 1.00725
ltoes -56.4394
414
root -1.25978 18.7634 6.61293 -0.473709 3.93223 1.98725
lowerback 8.11655 1.15075 7.1498
upperback -2.77671 2.47957 2.09231
thorax -7.30528 0.935839 -2.15352
lowerneck -18.4843 -2.8461 2.92285
upperneck 29.3514 -4.02073 -3.39036
head 12.6969 -1.89651 -2.44818
rclavicle -4.52235e-014 -6.36111e-014
rhumerus -63.5886 -20.5036 -73.301
rradius 39.2564
rwrist -8.9079
rhand -25.9173 -42.6328
rfingers 7.12502
rthumb 0.625648 -72.6116
lclavicle -4.52235e-014 -6.36111e-014
lhumerus -54.0234 12.3343 87.3729
lradius 41.7496
lwrist 22.958
lhand -25.1609 -16.9674
lfingers 7.12502
lthumb 1.35613 13.0081
rfemur 0 0 0
rtibia 0
rfoot 0 0
rtoes 0
lfemur -4.48616 2.27934 -14.0347
ltibia 25.886
lfoot -14.5048 0.979292
ltoes -56.6026
415
root -1.26606 18.7585 6.62663 -0.522508 3.83947 1.83927
lowerback 7.96916 1.17123 7.24193
upperback -2.76941 2.50438 2.12406
thorax -7.20846 0.948215 -2.16994
lowerneck -18.4798 -3.01843 2.67089
upperneck 29.4177 -4.17851 -3.42061
head 12.7219 -1.99816 -2.44387
rclavicle 1.49089e-014 3.81667e-014
rhumerus -63.517 -20.5523 -73.2041
rradius 39.1924
rwrist -8.82815
rhand -26.0785 -42.6435
rfingers 7.12502
rthumb 0.469925 -72.6227
lclavicle 1.49089e-014 3.81667e-014
lhumerus -53.9298 12.4223 87.3509
lradius 41.5887
lwrist 22.4188
lhand -25.214 -17.0029
lfingers 7.12502
lthumb 1.30487 12.9729
rfemur 0 0 0
rtibia 0
rfoot 0 0
rtoes 0
lfemur -4.34747 2.16901 -13.8519
ltibia 25.8728
lfoot -14.5877 1.01512
ltoes -56.6863
416
root -1.27086 18.7528 6.63862 -0.566057 3.75066 1.62071
lowerback 7.85404 1.1321 7.22669
upperback -2.77093 2.4435 2.18231
thorax -7.15216 0.922722 -2.08855
lowerneck -18.4924 -3.23849 2.36233
upperneck 29.5183 -4.40088 -3.41333
head 12.7653 -2.12947 -2.42762
rclavicle 6.55989e-015 -1.90833e-014
rhumerus -63.4036 -20.4806 -73.1617
rradius 39.14
rwrist -8.63525
rhand -25.9794 -42.462
rfingers 7.12502
rthumb 0.565689 -72.441
lclavicle 6.55989e-015 -1.90833e-014
lhumerus -53.8256 12.4606 87.4126
lradius 41.4522
lwrist 22.0644
lhand -25.2751 -17.0161
lfingers 7.12502
lthumb 1.24591 12.96
rfemur 0 0 0
rtibia 0
rfoot 0 0
rtoes 0
lfemur -4.21988 1.99511 -13.6079
ltibia 25.8487
lfoot -14.7622 1.07153
ltoes -56.6581
417
root -1.2726 18.746 6.65024 -0.604002 3.59668 1.32729
lowerback 7.7687 1.08417 7.19505
upperback -2.78331 2.37029 2.20527
thorax -7.12456 0.889761 -2.03481
lowerneck -18.4548 -3.57384 1.96493
upperneck 29.5805 -4.82075 -3.22279
head 12.7854 -2.33387 -2.35449
rclavicle -3.27995e-015 -2.54444e-014
rhumerus -63.2861 -20.4039 -73.23
rradius 39.0889
rwrist -8.32579
rhand -25.7527 -42.155
rfingers 7.12502
rthumb 0.784607 -72.1333
lclavicle -3.27995e-015 -2.54444e-014
lhumerus -53.7635 12.3323 87.5078
lradius 41.4411
lwrist 21.9607
lhand -25.4323 -17.0901
lfingers 7.12502
lthumb 1.09409 12.8868
rfemur 0 0 0
rtibia 0
rfoot 0 0
rtoes 0
lfemur -4.0571 1.77261 -13.3101
ltibia 25.7839
lfoot -15.0755 1.21428
ltoes -56.6194
